<svg width="300" height="78" viewBox="0 0 300 78" fill="none" xmlns="http://www.w3.org/2000/svg">
<rect width="300" height="56" transform="translate(0 12)" fill="#070707"/>
<path d="M11 33H126V48H11V33Z" fill="white"/>
<path d="M126 33V48H113L126 33Z" fill="#070707"/>
<path d="M13.2 53.16H16.2V28.92H13.2V27.08H26.24C28.72 27.08 30.64 27.7067 32 28.96C33.3867 30.1867 34.08 32.0267 34.08 34.48C34.08 36.3733 33.5467 37.96 32.48 39.24C31.44 40.4933 29.9067 41.3067 27.88 41.68L32.56 50.36C33.0933 51.32 33.6933 52.0267 34.36 52.48C35.0267 52.9333 35.8533 53.16 36.84 53.16H37.2V55H34.64C33.8667 55 33.2133 54.92 32.68 54.76C32.1733 54.6 31.72 54.3733 31.32 54.08C30.92 53.7867 30.56 53.4133 30.24 52.96C29.9467 52.5067 29.64 51.9867 29.32 51.4L24.36 42.16H19.64V53.16H22.64V55H13.2V53.16ZM19.64 40.2H25.92C27.36 40.2 28.4667 39.76 29.24 38.88C30.0133 37.9733 30.4 36.8667 30.4 35.56V33.72C30.4 32.4133 30.0133 31.3067 29.24 30.4C28.4667 29.4933 27.36 29.04 25.92 29.04H19.64V40.2ZM40.075 53.16H43.075V28.92H40.075V27.08H60.715V33.8H57.835V29.04H46.515V39.64H54.435V36.44H56.835V44.8H54.435V41.6H46.515V53.04H58.235V47.92H61.115V55H40.075V53.16ZM75.3 55.48C73.62 55.48 72.2467 55.2267 71.18 54.72C70.14 54.1867 69.4067 53.48 68.98 52.6H68.78V55H65.9V46.8H68.78V48.64C68.78 49.3067 68.8733 49.9333 69.06 50.52C69.2733 51.08 69.6067 51.5733 70.06 52C70.54 52.4267 71.1533 52.76 71.9 53C72.6733 53.24 73.6067 53.36 74.7 53.36C77.02 53.36 78.6867 52.8667 79.7 51.88C80.74 50.8933 81.26 49.5733 81.26 47.92C81.26 46.5067 80.86 45.4 80.06 44.6C79.2867 43.8 78.06 43.1733 76.38 42.72L74.18 42.16C71.7 41.52 69.78 40.56 68.42 39.28C67.06 38 66.38 36.24 66.38 34C66.38 32.88 66.5933 31.8667 67.02 30.96C67.4467 30.0267 68.0467 29.24 68.82 28.6C69.5933 27.96 70.5133 27.4667 71.58 27.12C72.6733 26.7733 73.8733 26.6 75.18 26.6C76.7 26.6 77.94 26.84 78.9 27.32C79.8867 27.7733 80.58 28.4133 80.98 29.24H81.22V27.08H84.1V34.88H81.22V33.04C81.22 32.3733 81.1133 31.7733 80.9 31.24C80.7133 30.7067 80.38 30.2533 79.9 29.88C79.42 29.5067 78.7933 29.2267 78.02 29.04C77.2467 28.8267 76.3 28.72 75.18 28.72C73.3133 28.72 71.9133 29.1467 70.98 30C70.0467 30.8533 69.58 31.9733 69.58 33.36C69.58 34.8 69.9933 35.9333 70.82 36.76C71.6733 37.56 73.0067 38.2 74.82 38.68L76.86 39.2C79.2867 39.84 81.1533 40.8 82.46 42.08C83.7667 43.36 84.42 45.04 84.42 47.12C84.42 48.32 84.22 49.44 83.82 50.48C83.42 51.4933 82.8333 52.3733 82.06 53.12C81.2867 53.8667 80.3267 54.4533 79.18 54.88C78.06 55.28 76.7667 55.48 75.3 55.48ZM89.2156 53.16H92.2156V28.92H89.2156V27.08H109.856V33.8H106.976V29.04H95.6556V39.64H103.576V36.44H105.976V44.8H103.576V41.6H95.6556V53.04H107.376V47.92H110.256V55H89.2156V53.16Z" fill="white"/>
<mask id="mask0_5_12" style="mask-type:alpha" maskUnits="userSpaceOnUse" x="11" y="33" width="116" height="15">
<rect x="11" y="33" width="116" height="15" fill="white"/>
</mask>
<g mask="url(#mask0_5_12)">
<path d="M13.2 53.16H16.2V28.92H13.2V27.08H26.24C28.72 27.08 30.64 27.7067 32 28.96C33.3867 30.1867 34.08 32.0267 34.08 34.48C34.08 36.3733 33.5467 37.96 32.48 39.24C31.44 40.4933 29.9067 41.3067 27.88 41.68L32.56 50.36C33.0933 51.32 33.6933 52.0267 34.36 52.48C35.0267 52.9333 35.8533 53.16 36.84 53.16H37.2V55H34.64C33.8667 55 33.2133 54.92 32.68 54.76C32.1733 54.6 31.72 54.3733 31.32 54.08C30.92 53.7867 30.56 53.4133 30.24 52.96C29.9467 52.5067 29.64 51.9867 29.32 51.4L24.36 42.16H19.64V53.16H22.64V55H13.2V53.16ZM19.64 40.2H25.92C27.36 40.2 28.4667 39.76 29.24 38.88C30.0133 37.9733 30.4 36.8667 30.4 35.56V33.72C30.4 32.4133 30.0133 31.3067 29.24 30.4C28.4667 29.4933 27.36 29.04 25.92 29.04H19.64V40.2ZM40.075 53.16H43.075V28.92H40.075V27.08H60.715V33.8H57.835V29.04H46.515V39.64H54.435V36.44H56.835V44.8H54.435V41.6H46.515V53.04H58.235V47.92H61.115V55H40.075V53.16ZM75.3 55.48C73.62 55.48 72.2467 55.2267 71.18 54.72C70.14 54.1867 69.4067 53.48 68.98 52.6H68.78V55H65.9V46.8H68.78V48.64C68.78 49.3067 68.8733 49.9333 69.06 50.52C69.2733 51.08 69.6067 51.5733 70.06 52C70.54 52.4267 71.1533 52.76 71.9 53C72.6733 53.24 73.6067 53.36 74.7 53.36C77.02 53.36 78.6867 52.8667 79.7 51.88C80.74 50.8933 81.26 49.5733 81.26 47.92C81.26 46.5067 80.86 45.4 80.06 44.6C79.2867 43.8 78.06 43.1733 76.38 42.72L74.18 42.16C71.7 41.52 69.78 40.56 68.42 39.28C67.06 38 66.38 36.24 66.38 34C66.38 32.88 66.5933 31.8667 67.02 30.96C67.4467 30.0267 68.0467 29.24 68.82 28.6C69.5933 27.96 70.5133 27.4667 71.58 27.12C72.6733 26.7733 73.8733 26.6 75.18 26.6C76.7 26.6 77.94 26.84 78.9 27.32C79.8867 27.7733 80.58 28.4133 80.98 29.24H81.22V27.08H84.1V34.88H81.22V33.04C81.22 32.3733 81.1133 31.7733 80.9 31.24C80.7133 30.7067 80.38 30.2533 79.9 29.88C79.42 29.5067 78.7933 29.2267 78.02 29.04C77.2467 28.8267 76.3 28.72 75.18 28.72C73.3133 28.72 71.9133 29.1467 70.98 30C70.0467 30.8533 69.58 31.9733 69.58 33.36C69.58 34.8 69.9933 35.9333 70.82 36.76C71.6733 37.56 73.0067 38.2 74.82 38.68L76.86 39.2C79.2867 39.84 81.1533 40.8 82.46 42.08C83.7667 43.36 84.42 45.04 84.42 47.12C84.42 48.32 84.22 49.44 83.82 50.48C83.42 51.4933 82.8333 52.3733 82.06 53.12C81.2867 53.8667 80.3267 54.4533 79.18 54.88C78.06 55.28 76.7667 55.48 75.3 55.48ZM89.2156 53.16H92.2156V28.92H89.2156V27.08H109.856V33.8H106.976V29.04H95.6556V39.64H103.576V36.44H105.976V44.8H103.576V41.6H95.6556V53.04H107.376V47.92H110.256V55H89.2156V53.16Z" fill="black"/>
</g>
<path d="M197.96 28.92H195.84V27.08H205.2V28.92H201.6L205.72 41.32L208.88 51.56H209.04L212.28 41.28L216.2 28.92H212.6V27.08H220.72V28.92H218.6L210 55H206.56L197.96 28.92ZM223.763 53.16H226.763V28.92H223.763V27.08H233.203V28.92H230.203V53.16H233.203V55H223.763V53.16ZM237.591 53.16H240.591V28.92H237.591V27.08H258.231V33.8H255.351V29.04H244.031V40.24H251.951V37.04H254.351V45.4H251.951V42.2H244.031V53.16H247.831V55H237.591V53.16ZM267.59 53.16H271.39V43.76L263.35 28.92H261.23V27.08H270.87V28.92H267.27L273.71 41.32H273.87L280.47 28.92H276.87V27.08H284.99V28.92H282.87L274.83 43.56V53.16H278.63V55H267.59V53.16Z" fill="white"/>
<path d="M170 33H286V48H170V33Z" fill="white"/>
<path d="M170 48V33H183L170 48Z" fill="#070707"/>
<mask id="mask1_5_12" style="mask-type:alpha" maskUnits="userSpaceOnUse" x="169" y="33" width="117" height="15">
<rect x="169" y="33" width="117" height="15" fill="white"/>
</mask>
<g mask="url(#mask1_5_12)">
<path d="M197.96 28.92H195.84V27.08H205.2V28.92H201.6L205.72 41.32L208.88 51.56H209.04L212.28 41.28L216.2 28.92H212.6V27.08H220.72V28.92H218.6L210 55H206.56L197.96 28.92ZM223.763 53.16H226.763V28.92H223.763V27.08H233.203V28.92H230.203V53.16H233.203V55H223.763V53.16ZM237.591 53.16H240.591V28.92H237.591V27.08H258.231V33.8H255.351V29.04H244.031V40.24H251.951V37.04H254.351V45.4H251.951V42.2H244.031V53.16H247.831V55H237.591V53.16ZM267.59 53.16H271.39V43.76L263.35 28.92H261.23V27.08H270.87V28.92H267.27L273.71 41.32H273.87L280.47 28.92H276.87V27.08H284.99V28.92H282.87L274.83 43.56V53.16H278.63V55H267.59V53.16Z" fill="black"/>
</g>
<path d="M132.3 59.24H136.8V22.88H132.3V20.12H151.86C155.58 20.12 158.46 21.06 160.5 22.94C162.58 24.78 163.62 27.54 163.62 31.22C163.62 34.06 162.82 36.44 161.22 38.36C159.66 40.24 157.36 41.46 154.32 42.02L161.34 55.04C162.14 56.48 163.04 57.54 164.04 58.22C165.04 58.9 166.28 59.24 167.76 59.24H168.3V62H164.46C163.3 62 162.32 61.88 161.52 61.64C160.76 61.4 160.08 61.06 159.48 60.62C158.88 60.18 158.34 59.62 157.86 58.94C157.42 58.26 156.96 57.48 156.48 56.6L149.04 42.74H141.96V59.24H146.46V62H132.3V59.24ZM141.96 39.8H151.38C153.54 39.8 155.2 39.14 156.36 37.82C157.52 36.46 158.1 34.8 158.1 32.84V30.08C158.1 28.12 157.52 26.46 156.36 25.1C155.2 23.74 153.54 23.06 151.38 23.06H141.96V39.8Z" fill="white"/>
</svg>
